<?xml version="1.0" encoding="UTF-8" standalone="no"?>
<svg width="323px" height="254px" viewBox="0 0 323 254" version="1.1" xmlns="http://www.w3.org/2000/svg" xmlns:xlink="http://www.w3.org/1999/xlink">
    <!-- Generator: Sketch 44.1 (41455) - http://www.bohemiancoding.com/sketch -->
    <title>LogoMarkvtr</title>
    <desc>Created with Sketch.</desc>
    <defs></defs>
    <g id="Page-1" stroke="none" stroke-width="1" fill="none" fill-rule="evenodd">
        <g id="Artboard" transform="translate(-12.000000, 0.000000)">
            <g id="LogoMark">
                <g id="Group" transform="translate(180.232166, 131.860930) rotate(-20.000000) translate(-180.232166, -131.860930) translate(18.732166, 50.360930)">
                    <polygon id="Rectangle-74" fill="#C7C7C7" points="18.72 81.4256359 0 34.5878807 109.44 34.5878807 109.44 81.4256359"></polygon>
                    <polygon id="Rectangle-74-Copy" fill="#999999" transform="translate(54.720000, 104.123933) scale(1, -1) translate(-54.720000, -104.123933) " points="18.72 127.54281 0 80.705055 109.44 80.705055 109.44 127.54281"></polygon>
                    <path d="M322.553267,81.497694 C321.801925,126.502055 258.266471,162.851272 180,162.851272 C101.733529,162.851272 38.1980751,126.502055 37.4467333,81.497694 L322.553267,81.497694 L322.553267,81.497694 Z" id="Path" fill="#838383"></path>
                    <path d="M322.555493,81.497694 C321.939963,36.4270806 258.351504,0 180,0 C101.648496,0 38.0600367,36.4270806 37.4445068,81.497694 L322.555493,81.497694 L322.555493,81.497694 Z" id="Path" fill="#E3E3E3"></path>
                    <path d="M322.54457,81.497694 C321.411559,111.379624 258.02612,135.4692 180,135.4692 C101.97388,135.4692 38.5884411,111.379624 37.4554301,81.497694 L322.54457,81.497694 L322.54457,81.497694 Z" id="Path" fill="#999999"></path>
                    <path d="M322.549673,81.497694 C321.620842,51.5495013 258.154956,27.3820722 180,27.3820722 C101.845044,27.3820722 38.3791575,51.5495013 37.4503271,81.497694 L322.549673,81.497694 L322.549673,81.497694 Z" id="Path" fill="#C7C7C7"></path>
                </g>
                <path d="M207.977227,38.1156359 C200.979154,13.8997637 193.014745,0.465994962 183.966512,0.724236257 C166.46295,1.22379707 160.578207,56.7620134 166.242585,127.929629 C171.966909,199.850389 186.815641,253.87877 205.328802,253.391607 C216.369333,253.101082 222.586105,235.426011 224.766837,204.737433 C224.811401,204.110311 224.113908,204.544961 224.155107,203.907008 C224.155107,203.907008 224.065089,202.786088 223.649895,202.759231 C222.867588,202.708628 221.302974,202.607421 221.302974,202.607421 C219.37883,232.401997 213.552888,249.571046 205.234179,249.789948 C190.019779,250.190306 175.331087,196.744248 169.831218,127.643541 C164.421995,59.6817186 170.245632,4.72020633 184.069134,4.32567636 C190.611856,4.13894365 197.941284,16.5083511 204.42994,38.8111578 C204.42994,38.8111578 207.980795,38.1279817 207.977227,38.1156359 Z" id="Shape" fill="#040404" fill-rule="nonzero"></path>
                <path d="M121.246436,20.8356992 C106.337485,30.0271731 128.987872,81.0694246 169.448492,139.867913 C210.337295,199.288648 250.189088,238.648243 265.978571,228.9623 C274.803081,223.548968 272.325881,207.11635 260.963508,182.308143 C260.549273,181.403717 259.480878,181.006609 258.57718,181.421178 C257.673483,181.835747 257.276695,182.905005 257.69093,183.809431 C268.254477,206.873509 270.526702,221.946418 264.097247,225.89052 C251.121208,233.850578 211.69894,194.915204 172.413411,137.82439 C133.775366,81.6745187 111.360179,31.1622856 123.134577,23.9032857 C129.387831,20.0481104 144.258302,29.3489147 163.908251,49.4412599 C164.12687,49.6648003 165.385644,50.9683739 165.664946,51.0534819 C166.274022,51.2390777 165.966605,49.9457189 166.453689,49.4685905 C167.164134,48.7726673 167.17636,47.6321166 166.480998,46.9210991 C145.488992,25.456483 129.734487,15.6027554 121.246436,20.8356992 Z" id="Shape" fill="#6A6A6A" fill-rule="nonzero"></path>
            </g>
        </g>
    </g>
</svg>