<svg xmlns="http://www.w3.org/2000/svg" viewBox="0 0 300 248.63"><defs><style>.cls-1{fill:#444;}</style></defs><title>icon-ai</title><g id="Layer_2" data-name="Layer 2"><g id="Layer_1-2" data-name="Layer 1"><g id="_Group_" data-name="&lt;Group&gt;"><path id="_Compound_Path_" data-name="&lt;Compound Path&gt;" class="cls-1" d="M3.24,248.63h54.5a3.24,3.24,0,0,0,3.12-2.37L76.76,189h61.71l17.24,57.37a3.24,3.24,0,0,0,3.1,2.31h56.6a3.24,3.24,0,0,0,3.24-3.24,3.19,3.19,0,0,0-.29-1.34l-72-232.11a3.24,3.24,0,0,0-3.09-2.28h-69A3.24,3.24,0,0,0,71.2,12L.14,244.45a3.24,3.24,0,0,0,3.1,4.19ZM129,143.16H86.15L98.8,97.95c2.3-8.15,4.47-17.79,6.57-27.11q.72-3.21,1.42-6.3c2.78,11.17,5.83,23.23,8.9,33.44Z"/><path id="_Path_" data-name="&lt;Path&gt;" class="cls-1" d="M242.6,73.48a3.24,3.24,0,0,0-3.24,3.24V245.4a3.24,3.24,0,0,0,3.24,3.24H295a3.24,3.24,0,0,0,3.24-3.24V76.72A3.24,3.24,0,0,0,295,73.48Z"/><path id="_Path_2" data-name="&lt;Path&gt;" class="cls-1" d="M268.48,59.25c18.27,0,31.52-12.39,31.52-29.53C299.6,12.22,286.78,0,268.82,0c-9.17,0-17.31,3.16-22.92,8.91A28.69,28.69,0,0,0,238,29.8a28.2,28.2,0,0,0,7.93,20.52C251.54,56.08,259.55,59.25,268.48,59.25Z"/></g></g></g></svg>