<svg xmlns="http://www.w3.org/2000/svg" viewBox="0 0 300 231.88"><defs><style>.cls-1{fill:#444;}</style></defs><title>icon-ps</title><g id="Layer_2" data-name="Layer 2"><g id="Layer_1-2" data-name="Layer 1"><g id="_Group_" data-name="&lt;Group&gt;"><path id="_Compound_Path_" data-name="&lt;Compound Path&gt;" class="cls-1" d="M55.62,225.53V150c4,.39,8.78.6,14,.6,31.59,0,57.13-8.33,73.87-24.11,13.71-13,21.27-32.44,21.27-54.65,0-21.57-9-41.08-24.74-53.51C124.53,6,101.82,0,70.57,0c-27.08,0-50,1.56-68,4.63A3.07,3.07,0,0,0,0,7.66V225.53a3.08,3.08,0,0,0,3.08,3.08H52.55A3.08,3.08,0,0,0,55.62,225.53Zm0-120.15V45.17a95,95,0,0,1,17.56-1.35c22.82,0,35.91,10.7,35.91,29.36,0,20.64-14.89,33-39.84,33A89.37,89.37,0,0,1,55.62,105.37Z"/><path id="_Path_" data-name="&lt;Path&gt;" class="cls-1" d="M254.37,124.67c-20.38-7.13-23.82-10.53-23.82-15.44,0-8.73,10-10,15.93-10,12.63,0,25.81,4.74,33.26,8.8a3.07,3.07,0,0,0,4.45-1.93L293,71.66a3.08,3.08,0,0,0-1.6-3.52c-9.18-4.59-26.24-9.5-46.59-9.5-40.2,0-68.27,22.82-68.27,55.44-.27,15.92,7.77,37.71,47.64,51.13,19.37,6.46,21.49,9.81,21.49,15.43,0,2.56,0,10.36-18.22,10.36-13.65,0-32.08-6.06-41.32-11.68a3.08,3.08,0,0,0-4.58,1.89l-8.84,35.71a3.08,3.08,0,0,0,1.52,3.44c13.53,7.31,32.93,11.51,53.23,11.51,44.74,0,72.53-21,72.53-54.88C299.65,151.54,285.57,135.4,254.37,124.67Z"/></g></g></g></svg>