<svg xmlns="http://www.w3.org/2000/svg" viewBox="0 0 300 300"><defs><style>.cls-1{fill:#505050;}.cls-2{fill:#fff;}</style></defs><title>icon-invision</title><g id="Layer_2" data-name="Layer 2"><g id="Layer_1-2" data-name="Layer 1"><path class="cls-1" d="M272.8,0H27.2A27.2,27.2,0,0,0,0,27.2V272.8A27.2,27.2,0,0,0,27.2,300H272.8A27.2,27.2,0,0,0,300,272.8V27.2A27.2,27.2,0,0,0,272.8,0"/><path class="cls-2" d="M100.26,94.39A18.06,18.06,0,1,0,81.94,76.33a18.12,18.12,0,0,0,18.32,18.06m-38,96.7a62,62,0,0,0-1.62,13.57c0,15.9,8.62,26.46,27,26.46,15.2,0,27.52-9,36.39-23.6l-5.42,21.74h30.18L166,160.07c4.31-17.52,12.67-26.61,25.33-26.61,10,0,16.17,6.2,16.17,16.44a32.28,32.28,0,0,1-1.35,9.7l-8.89,31.8a47.8,47.8,0,0,0-1.88,13.48c0,15.1,8.89,26.14,27.49,26.14,15.9,0,28.57-10.24,35.57-34.76l-11.86-4.58c-5.93,16.43-11.05,19.4-15.09,19.4s-6.2-2.69-6.2-8.08a35.75,35.75,0,0,1,1.35-8.36l8.63-31a68.33,68.33,0,0,0,3-19.65c0-23.18-14-35.27-31-35.27-15.9,0-32.07,14.34-40.16,29.44L173,111.08H126.93l-6.47,23.86H142L128.74,188.1c-10.43,23.18-29.58,23.55-32,23-3.95-.89-6.47-2.39-6.47-7.52a50.82,50.82,0,0,1,1.89-12.33l20.21-80.18H61.18l-6.47,23.86H76L62.26,191.09"/></g></g></svg>